<?xml version="1.0" standalone="no"?>
<!DOCTYPE svg PUBLIC "-//W3C//DTD SVG 20010904//EN"
 "http://www.w3.org/TR/2001/REC-SVG-20010904/DTD/svg10.dtd">
<svg version="1.0" xmlns="http://www.w3.org/2000/svg"
 width="621.000000pt" height="666.000000pt" viewBox="0 0 621.000000 666.000000"
 preserveAspectRatio="xMidYMid meet">

<g transform="translate(0.000000,666.000000) scale(0.100000,-0.100000)"
fill="#000000" stroke="none">
<path d="M0 3330 l0 -3330 3105 0 3105 0 0 3330 0 3330 -3105 0 -3105 0 0
-3330z m2390 3102 c0 -4 -160 -404 -355 -887 l-355 -879 0 -1424 c0 -1346 -1
-1423 -17 -1428 -10 -3 -46 -19 -81 -36 -219 -107 -267 -405 -93 -578 65 -65
125 -97 207 -110 158 -26 324 62 392 208 24 50 27 70 27 157 0 89 -3 106 -28
157 -26 53 -134 168 -158 168 -5 0 -9 536 -9 1418 l1 1417 367 910 368 910
405 3 406 2 -358 -887 -359 -888 0 -1052 0 -1051 -35 -22 c-54 -33 -122 -116
-146 -178 -17 -42 -23 -78 -23 -137 0 -70 4 -90 31 -148 38 -80 102 -145 181
-184 50 -24 69 -27 152 -28 83 0 102 4 152 27 76 35 148 104 184 175 26 53 29
67 29 158 0 93 -2 105 -33 167 -41 84 -112 150 -193 179 l-59 22 1 1011 0
1011 368 910 368 910 301 3 c166 1 302 1 302 -2 0 -2 -119 -324 -265 -715
l-265 -712 0 -764 0 -765 -61 -31 c-75 -38 -139 -102 -176 -177 -25 -50 -28
-68 -28 -152 0 -82 4 -103 27 -152 37 -79 98 -142 177 -181 60 -29 74 -32 161
-32 88 0 101 3 162 33 132 65 202 180 203 332 0 75 -4 93 -31 150 -35 73 -106
149 -165 176 l-39 17 0 752 0 751 274 735 273 734 682 3 681 2 0 -3020 0
-3020 -430 0 -430 0 0 228 0 227 45 19 c69 28 139 97 177 174 30 60 33 75 33
157 0 78 -4 98 -29 152 -69 150 -239 242 -394 213 -194 -35 -323 -199 -310
-392 10 -130 93 -249 214 -305 l54 -24 0 -225 0 -224 -430 0 -430 0 0 506 0
506 610 618 610 618 0 890 0 890 55 28 c62 31 133 101 163 161 92 180 17 405
-166 495 -62 31 -74 33 -167 33 -90 0 -106 -3 -155 -28 -72 -37 -141 -105
-176 -176 -26 -50 -29 -66 -29 -156 0 -90 3 -106 28 -158 35 -71 113 -149 173
-174 l44 -18 0 -845 0 -845 -610 -620 -610 -620 0 -552 0 -553 -1310 0 -1310
0 0 2474 0 2474 50 32 c215 138 228 447 24 603 -151 115 -362 95 -493 -48 -66
-73 -94 -146 -94 -245 0 -99 28 -172 94 -245 29 -31 73 -65 105 -81 l54 -26 0
-2469 0 -2469 -320 0 -320 0 0 3020 0 3020 1065 0 c586 0 1065 -4 1065 -8z"/>
</g>
</svg>
