<?xml version="1.0" standalone="no"?>
<!DOCTYPE svg PUBLIC "-//W3C//DTD SVG 20010904//EN"
 "http://www.w3.org/TR/2001/REC-SVG-20010904/DTD/svg10.dtd">
<svg version="1.0" xmlns="http://www.w3.org/2000/svg"
 width="199.000000pt" height="199.000000pt" viewBox="0 0 199.000000 199.000000"
 preserveAspectRatio="xMidYMid meet">

<g transform="translate(0.000000,199.000000) scale(0.100000,-0.100000)"
fill="#000000" stroke="none">
<path d="M900 1514 c-105 -50 -199 -79 -319 -100 l-104 -18 7 -159 c10 -256
56 -418 166 -584 33 -50 90 -119 127 -153 76 -70 177 -140 203 -140 30 0 137
77 213 152 132 131 216 287 257 478 22 99 39 410 23 410 -6 0 -50 7 -99 15
-110 19 -193 45 -307 96 -48 21 -88 39 -90 38 -1 0 -36 -16 -77 -35z m175 -55
c79 -37 222 -78 329 -95 l39 -5 -6 -157 c-10 -234 -46 -364 -149 -524 -54 -85
-179 -209 -254 -253 l-47 -28 -43 21 c-62 30 -179 135 -235 211 -64 85 -122
205 -149 306 -20 74 -51 407 -39 419 2 3 44 11 93 20 110 19 200 47 291 91 39
18 73 34 76 34 3 1 46 -18 94 -40z"/>
<path d="M909 1441 c-77 -41 -158 -67 -269 -87 l-93 -17 6 -146 c10 -229 54
-376 159 -528 53 -77 165 -182 232 -218 36 -19 36 -19 73 0 61 33 160 122 214
193 117 154 166 307 176 549 l6 152 -39 6 c-97 15 -211 47 -287 80 -45 21 -91
39 -102 41 -11 2 -45 -9 -76 -25z m-194 -201 c3 -5 -3 -10 -14 -10 -27 0 -27
-16 0 -30 32 -18 22 -55 -15 -55 -16 0 -31 5 -33 11 -2 7 6 10 22 7 30 -6 34
12 5 27 -19 10 -27 40 -13 53 10 10 41 8 48 -3z m85 0 c0 -5 -9 -10 -20 -10
-28 0 -26 -30 3 -31 l22 0 -22 -9 c-28 -12 -30 -30 -3 -30 11 0 20 -4 20 -10
0 -5 -13 -10 -30 -10 -30 0 -30 1 -30 55 0 54 0 55 30 55 17 0 30 -4 30 -10z
m94 1 c3 -5 -8 -11 -25 -15 -26 -5 -30 -10 -27 -33 2 -22 9 -29 31 -31 36 -4
35 -22 -2 -22 -30 0 -61 30 -61 57 0 33 69 69 84 44z m46 -37 c0 -38 3 -45 18
-42 12 2 18 15 20 46 4 55 22 54 22 -2 0 -49 -17 -69 -52 -64 -20 3 -23 9 -26
56 -2 31 1 52 7 52 6 0 11 -20 11 -46z m139 32 c10 -11 10 -20 1 -36 -9 -18
-8 -25 6 -41 15 -17 15 -19 1 -19 -9 0 -23 10 -31 22 l-16 22 0 -22 c0 -12 -4
-22 -10 -22 -5 0 -10 25 -10 55 0 51 2 55 24 55 13 0 29 -6 35 -14z m170 -3
c9 -17 10 -17 28 0 31 27 36 20 14 -17 -12 -18 -21 -43 -21 -55 0 -11 -4 -21
-10 -21 -5 0 -10 12 -10 28 0 15 -7 38 -16 50 -24 34 -54 13 -54 -38 0 -22 -4
-40 -10 -40 -5 0 -10 20 -10 45 0 33 -4 45 -15 45 -11 0 -15 -12 -15 -45 0
-25 -4 -45 -10 -45 -5 0 -10 24 -10 54 l0 53 64 2 c53 1 67 -2 75 -16z m-558
-150 c-10 -4 -11 -7 -1 -13 14 -9 5 -30 -13 -30 -8 0 -8 3 2 9 9 6 10 11 2 15
-17 11 -13 26 7 25 12 0 13 -2 3 -6z m49 -3 c0 -5 -4 -10 -10 -10 -5 0 -10 5
-10 10 0 6 5 10 10 10 6 0 10 -4 10 -10z m35 -11 c-6 -33 -15 -36 -15 -6 0 15
4 27 9 27 6 0 8 -10 6 -21z m115 -20 c0 -4 -9 -5 -20 -2 -23 6 -22 5 -13 29 6
16 7 16 20 -2 7 -10 13 -21 13 -25z m43 28 c3 11 5 7 6 -11 1 -28 1 -29 -19
-11 -11 10 -20 23 -20 29 0 6 7 3 14 -7 14 -18 14 -18 19 0z m50 -1 c5 -14
-10 -36 -25 -36 -4 0 -8 11 -8 25 0 27 24 35 33 11z m57 -7 c0 -11 -4 -18 -9
-15 -5 4 -12 0 -14 -6 -3 -7 -6 -1 -6 15 -1 18 4 27 14 27 8 0 15 -9 15 -21z
m74 -21 c7 -5 5 -8 -6 -8 -13 0 -18 7 -17 28 1 21 2 22 6 7 3 -11 10 -23 17
-27z m40 20 c8 25 21 22 28 -6 4 -14 -1 -17 -21 -16 -20 0 -26 6 -28 25 l-2
24 8 -25 7 -25 8 23z m66 7 c0 -8 0 -18 1 -22 0 -4 -5 -9 -13 -11 -9 -2 -8 0
2 7 8 6 10 11 4 11 -6 0 -11 7 -11 15 0 8 4 15 9 15 4 0 8 -7 8 -15z m65 5
c-3 -5 0 -10 7 -11 10 0 10 -2 -1 -6 -11 -5 -11 -7 0 -14 11 -7 10 -9 -3 -9
-13 0 -18 8 -18 25 0 14 5 25 11 25 5 0 7 -4 4 -10z m-535 -29 c0 -5 -9 -7
-20 -4 -11 3 -20 7 -20 9 0 2 9 4 20 4 11 0 20 -4 20 -9z m505 -1 c3 -5 1 -10
-4 -10 -6 0 -11 5 -11 10 0 6 2 10 4 10 3 0 8 -4 11 -10z m-226 -126 c21 -17
33 -38 37 -64 4 -21 13 -41 20 -44 10 -4 14 -27 14 -86 0 -74 -2 -83 -26 -105
-48 -44 -140 -44 -188 0 -24 22 -26 31 -26 105 0 59 4 82 14 86 7 3 16 23 20
44 6 41 53 90 86 90 10 0 32 -12 49 -26z"/>
<path d="M1040 1215 c0 -8 5 -15 10 -15 6 0 10 7 10 15 0 8 -4 15 -10 15 -5 0
-10 -7 -10 -15z"/>
<path d="M960 1064 c0 -8 5 -12 10 -9 6 4 8 11 5 16 -9 14 -15 11 -15 -7z"/>
<path d="M948 893 c-9 -10 -19 -28 -22 -40 -7 -22 -5 -23 54 -23 59 0 61 1 54
23 -9 31 -34 57 -54 57 -9 0 -24 -8 -32 -17z"/>
<path d="M952 747 c-16 -19 8 -87 30 -87 10 0 18 7 18 15 0 8 5 24 12 34 22
36 -33 71 -60 38z"/>
</g>
</svg>
